/* XPM */
static char * MISATO_EYES[] = {
"240 16 16 1",
" 	c #000000",
".	c #333344",
"+	c #BB5544",
"@	c #771177",
"#	c #995599",
"$	c #AA0000",
"%	c #CC0011",
"&	c #EE0055",
"*	c #FF8800",
"=	c #FFFFAA",
"-	c #DDDDDD",
";	c #FF9988",
">	c #FFBBAA",
",	c #FFDDCC",
"'	c #CCCCFF",
")	c #FFFFFF",
"                     @@@ ##@#@ ###  ## ;; @@ >,,,,,,;  @;;; ;  ; .... .@@@@@                    @@@ @@#@@@@ @@@ #@@ >>>; ;>>> @@# @@@ @@@### @#  @                              @@@ @@#@@@@ @@@ #@@ >>>; ;>>> @@# @@@ @@@### @#  @              ",
"                     @@  #@ #@ #@#  #@ ;@@  @ >,,,,, @;>>>>;> ;> ..  ..@@@@@                   @@@ @#@#@ ## #@  #@ +>,,>;>,,>+ @#  ## ## @## @#                                @@@ @#@#@ ## #@  #@ +>,,>;>,,>+ @#  ## ## @## @#                 ",
"                     @@  @@ @# @@ ; @@ @;;;;;;@,,,,;;>>>>>>>>;>    ....@@@@@                   @@@ ## ## #@ ##  ## ;>,,,>,,,>; ##  ## #@ @@# @#                                @@@ ## ## #@ ##  ## ;>,,,>,,,>; ##  ## #@ @@# @#                 ",
"                      @  @@ @@ @@ ;@ . ;>>>>>>;,,,,,>>>>>>>>>>>>>; .....@@@@                   @@  ## ## @@ @@  @@ +>,,,,,,,>+ @@  @@ @@ @@@ @#                                @@  ## ## @@ @@  @@ +>,,,,,,,>+ @@  @@ @@ @@@ @#                 ",
"                         @@ @@ @. @; . ,,,,,,,,,,,,,,,>>>>>>>>>>>>+.....@@@@                   @@  @# #@  @  @ > @@ ;>,,,,,>; @@ > @  @  @@@ @@                                @@  @# #@  @  @ > @@ ;>,,,,,>; @@ > @  @  @@@ @@                 ",
"                         @@ @@. . ;>;  ,,,,,,,,,,,,,,,,,>>>>>>>>>;; .  .@@@@                    @  @@ @@ >  >  >> @ +>,,,,,>+ @ >>  >  > @.. .                                  @  @@ @@ >  >  >> @ +>,,,,,>+ @ >>  >  > @.. .                  ",
"                          @ @@. . ;>>; ,,,,,,,,,,,,,,,,,,,>>>;++;>>  ;; .@@@                       .@ .@ >> >>>>>>   ;,,,,,;   >> >>> >> .. ..                                     .@ .@ >> >>>>>>   ;,,,,,;   >> >>> >> .. ..                  ",
"                          @. @. . ;>>;+,,,,,,,,,,,,,,>+;>,,;+++;>>> ;>>; .@@                       ... . >@@@@@@@@@;>+,,,,,+>;@@@@@@@@@> . ..                                      ... . >@@@@@@@@@;>+,,,,,+>;@@@@@@@@@> . ..                   ",
"                           . @.. . >;+;>,,>;++;>,,,,,,;++++++;>>>>> >+;> .@@                        ...  @;;;;>>>>>>>,,,,,,,>>>>>>>;;;;@  ...                                       ...  @;;;;>>>>>>>,,,,,,,>>>>>>>;;;;@  ...                   ",
"                            . .. . >>;+++++++;>,,,,,,,,,,,,,>>>>>>>>+;>; .@@                          .. >>>>>>>>>,,,,,,,,,,,,,>>>>>>>>> ..                                           .. >>>>>>>>>,,,,,,,,,,,,,>>>>>>>>> ..                     ",
"                             . ..  ;>>>,,,,,,,,,,,,,,,,,,,,,,>>>>>>>+;>  .@@                             >>>;+    +>,,,,,,,,,>+    +;>>>                                                 >>>;+    +>,,,,,,,,,>+    +;>>>                        ",
"                              . .. $>>,,,,,,,,,,,,,,,,,,,,,,,>>>>>>;;;;  @@@                           > >+++ +;>;+ >,,,,,,,> +;>;+ +++> ;                                             > >+++ +;>;+ >,,,,,,,> +;>;+ +++> ;                      ",
"                               .  ;+;>,,,,,,,,>>,,,,,,,,,,,,,>>>>>>+;> . @@@                           > ;>> +;,,,>;+>,,,,,>+;>>>>;+ >>> ;                                             > ;>> +;,,,>;+>,,,,,>+;>>>>;+ >>> ;                      ",
"                               @. ;;$>>,,,,,,,>>;,,,,,,,,,,,,>>>>>;+; .. @@@                            . >>>,,,,,,,,,,,,,,,,,,,>>>>>>> .                                               . >>>,,,,,,,,,,,,,,,,,,,>>>>>>> .                       ",
"                               @.  ;+;>,,,,,,,>;+,,,,,,,,,,,,>>>>>+   .. @@@                            . >>>>>>>>,,,,,,,,,,,,,>>>>>>>> .                                               . >>>>>>>>,,,,,,,,,,,,,>>>>>>>> .                       ",
"                               @@  >;$>,,,,,,,,>;,,,,,,,,,,,,>>>>;+.. .@ @@@#                           @ >>>*****>,,,,,,,,,,,>*****>>> @                                               @ >>>*****>,,,,,,,,,,,>*****>>> @                       "};
