/* XPM */
static char *REI_EYES[] = {
/* columns rows colors chars-per-pixel */
"384 18 16 1 ",
"  c black",
". c #444444",
"X c #777777",
"o c #559944",
"O c #FF4444",
"+ c #5555FF",
"@ c white",
"# c #DD0044",
"$ c #994444",
"% c #5555EE",
"& c #7777FF",
"* c #AAAAFF",
"= c gray80",
"- c #FFBBAA",
"; c #FFDDCC",
": c white",
/* pixels */
"   &  *& **& ***& & * ** &********&  *& &* ***** ** = **& *&       &  *& **& ***& & * ** &********& ==:::::::XX=:::XXXX** *        &  *& **& ***& & * ** &********&  *& &* ***** ** ****& *&       &  *& **& ***& & * ** &********& ===::::::XX=:::XXXX** *        &  *& **& ***& & * ** &********&  *& &* ***** ** ****& *&       &  *& **& ***& & * ** &********& ==:::::::XX=:::XXXX** *     ",
"      *& **& **& *& & *& &*******& - *& &* ***&* **  &**& *&          *& **& **& *& & *& &*******& ===:::::XX=::XXX&&&**& *&          *& **& **& *& & *& &*******& - *& &* ***&* ** ****& *&          *& **& **& *& & *& &*******& ===:::::XX=::XXX&&&**& *&          *& **& **& *& & *& &*******& - *& &* ***&* ** ****& *&          *& **& **& *& & *& &*******& ===:::::XX=::XXX&&&**& *&    ",
"      * **& ***& & && *& &&*&****& - *& &*& ** ** * &***& *&          * **& ***& & && *& &&*&****& ===:::XX==XXX* * &***& *&&         * **& ***& & && *& &&*&****& - *& &*& ** ** * &***& *&          * **& ***& & && *& &&*&****& ===:::XX==XXX* * &***& *&&         * **& ***& & && *& &&*&****& - *& &*& ** ** * &***& *&          * **& ***& & && *& &&*&****& ===:::XX==XXX* * &***& *&&   ",
"     *& **& **& && &  *& &&*&****& - & - && ** &* ** *&*& *&         *& **& **& && &  *& &&*&****& ==:::X==XX* &* ** *&*& * &        *& **& **& && &  *& &&*&****& - & - && ** &* ** *&*& *&         *& **& **& && &  *& &&*&****& ==:::X==XX* &* ** *&*& * &        *& **& **& && &  *& &&*&****& - & - && ** &* ** *&*& *&         *& **& **& && &  *& &&*&****& ==:::X==XX* &* ** *&*& * &   ",
"     *& *&  **& & & - & - &&&**** -- & - && ** &*& * *&*& *&         *& *&  **& & & = & = &&&**** ===:XX=XX ** &*& * *&*& * &        *& *&  **& & & - & - &&&**** -- & - && ** &*& * *&*& *&         *& *&  **& & & = & = &&&**** ===:XX=XX ** &*& * *&*& * &        *& *&  **& & & - & - &&&**** -- & - && ** &*& * *&*& *&         *& *&  **& & & = & = &&&**** ===:XX=XX ** &*& * *&*& * &   ",
"     * **&  **& &       - && &**& --         *& *& * * *& &&         * **&  **& & & = & = && &**& ==XXXXX    *& *& * * *& &          * **&  **& &       - && &**& --         *& *& * * *& &&         * **&  **& & & = & = && &**& ==XXXXX    *& *& * * *& &          * **&  **& &       - && &**& --         *& *& * * *& &&         * **&  **& & & = & = && &**& ==XXXXX    *& *& * * *& &     ",
"     * **&  **&   & - & -- & &&&& - -  -- &&  & *& * & && &&         * **&  **&   & = & == & &&&& =XXX -- &&  & *& * & && &          * **&  **&   & - & -- & &&&& - -  -- &&  & *& * & && &&         * **&  **&   & = & == & &&&& =XXX -- &&  & *& * & && &          * **&  **&   & - & -- & &&&& - -  -- &&  & *& * & && &&         * **&  **&   & = & == & &&&& =XXX -- &&  & *& * & && &     ",
"     * *& & **&   & - & -- & &&&& -------- & && && * & && &&         * *&   **&   & ==  == & &&&& XX--$    & && && * & && &          * *& & **&   & - & -- & &&&& -------- & && && * & && &&         * *&   **&   & ==  == & &&&& XX--$    & && && * & && &          * *& & **&   & - & -- & &&&& -------- & && && * & && &&         * *&   **&   & ==  == & &&&& XX--$    & && && * & && &     ",
"       *& & **&  -  --  --- & && ----------  && &&  && && &            *&   **&  =  ==  === & && ----------  && &&  && && &            *& & **&  -  --  --- & && ----------  && &&  && && &            *&   **&  =  ==  === & && ----------  && &&  && && &            *& & **&  -  --  --- & && ----------  && &&  && && &            *&   **&  =  ==  === & && ----------  && &&  && && &     ",
"        &  & *& --- --  ----  && -----------  && &  && & &&             &    *& ==X === ==X=  && -----------  && &  && & &&             &  & *& --- --  ----  && -----------  && &  && & &&             &    *& ==X === ==X=  && -----------  && &  && & &&             &  & *& --- --  ----  && -----------  && &  && & &&             &    *& ==X === ==X=  && -----------  && &  && & &&     ",
"        &  &  & ------- ----- && ------------ && &  & && &&             &     & =XX === =X=X- && ------------ && &  & && &&             &  &  & ------- ----- && ------------ && &  & && &&             &     & =XX === =X=X- && ------------ && &  & && &&             &  &  & ------- ----- && ------------ && &  & && &&             &     & =XX === =X=X- && ------------ && &  & && &&     ",
"        &  &  & &--$------ ---   --- ------$--  &   & && &              &   X & ==X=X===XXXX--   --- ------$--  &   & && &              &  &  & &--$------ ---   --- ------$--  &   & && &              &   X & ==X=X===XXXX--   --- ------$--  &   & && &              &  &  & &--$------ ---   --- ------$--  &   & && &              &   X & ==X=X===XXXX--   --- ------$--  &   & && &      ",
"           & &   ---      $-;;;- ---$      ---  &   & && &                  X:  ==XX===XX==X-;;- ---$      ---  &   & && &                 & &   ---      $-;;;- ---$      ---  &   & && &                  X:  ==XX===XX==X-;;- ---$      ---  &   & && &                 & &   ---      $-;;;- ---$      ---  &   & && &                  X:  ==XX===XX==X-;;- ---$      ---  &   & && &      ",
"           & && &&-;;$  $;;;;;;;;----$   $----- & & & & &                    X: =X=X=XX=X=:X-;;;;-;;-$   $----- & & & & &                  & && &&-;;$  $;;;;;;;;----$   $----- & & & & &                    X: =X=X=XX=X=:X-;;;;-;;-$   $----- & & & & &                  & && &&-;;$  $;;;;;;;;----$   $----- & & & & &                    X: =X=X=XX=X=:X-;;;;-;;-$   $----- & & & & &       ",
"           & ** & -;;;;;;;;;;;;;;;;;;;;------- *&  & && &                    X::=:=XX=X:X=:X;;;;;;;;;;;------- *&  & && &                  & ** & -;;;;;;;;;;;;;;;;;;;;------- *&  & && &                    X::=:=XX=X:X=:X;;;;;;;;;;;------- *&  & && &                  & ** & -;;;;;;;;;;;;;;;;;;;;------- *&  & && &                    X::=:=XX=X:X=:X;;;;;;;;;;;------- *&  & && &       ",
"            & * **&;;;;;;;;;;;;;;;;;;;;------ *& & & &&                      X:::XX;;XXX:XX;;;;;;;;;;;;------ *& & & &&                     & * **&;;;;;;;;;;;;;;;;;;;;------ *& & & &&                      X:::XX;;XXX:XX;;;;;;;;;;;;------ *& & & &&                     & * **&;;;;;;;;;;;;;;;;;;;;------ *& & & &&                      X:::XX;;XXX:XX;;;;;;;;;;;;------ *& & & &&         ",
"            & * &* -;;;;;;;;;;;;;;;;;;;----- *& & && & &                     X:XX* -;;;X:X;;;;;;;;;;;;;----- *& & && & &                    & * &* -;;;;;;;;;;;;;;;;;;;----- *& & && & &                     X:XX* -;;;X:X;;;;;;;;;;;;;----- *& & && & &                    & * &* -;;;;;;;;;;;;;;;;;;;----- *& & && & &                     X:XX* -;;;X:X;;;;;;;;;;;;;----- *& & && & &        ",
"            & && &* -;;;;;;;-$;;;;;;;;;;--- *& && & &&                       XX& &* -;;XXX;;-$;;;;;;;;;;--- *& && & &&                      & && &* -;;;;;;;-$;;;;;;;;;;--- *& && & &&                       XX& &* -;;XXX;;-$;;;;;;;;;;--- *& && & &&                      & && &* -;;;;;;;-$;;;;;;;;;;--- *& && & &&                       XX& &* -;;XXX;;-$;;;;;;;;;;--- *& && & &&          "
};
